<mxfile host="app.diagrams.net" modified="2022-06-19T14:26:37.450Z" agent="5.0 (Windows NT 10.0; Win64; x64) AppleWebKit/537.36 (KHTML, like Gecko) Chrome/100.0.4896.127 Safari/537.36" etag="RQB0UcvlGJF552QNimWN" version="20.0.1" type="github">
  <diagram id="kgpKYQtTHZ0yAKxKKP6v" name="Page-1">
    <mxGraphModel dx="2130" dy="818" grid="1" gridSize="10" guides="1" tooltips="1" connect="1" arrows="1" fold="1" page="1" pageScale="1" pageWidth="850" pageHeight="1100" math="0" shadow="0">
      <root>
        <mxCell id="0" />
        <mxCell id="1" parent="0" />
        <mxCell id="3nuBFxr9cyL0pnOWT2aG-1" value="客户端节点" style="shape=umlLifeline;perimeter=lifelinePerimeter;container=1;collapsible=0;recursiveResize=0;rounded=0;shadow=0;strokeWidth=1;" parent="1" vertex="1">
          <mxGeometry x="120" y="80" width="100" height="440" as="geometry" />
        </mxCell>
        <mxCell id="3nuBFxr9cyL0pnOWT2aG-2" value="" style="points=[];perimeter=orthogonalPerimeter;rounded=0;shadow=0;strokeWidth=1;" parent="3nuBFxr9cyL0pnOWT2aG-1" vertex="1">
          <mxGeometry x="45" y="70" width="10" height="370" as="geometry" />
        </mxCell>
        <mxCell id="ng7PeLx7jzqzYdX6bXoY-5" value="数据源连接请求" style="html=1;verticalAlign=bottom;endArrow=block;rounded=0;" edge="1" parent="3nuBFxr9cyL0pnOWT2aG-1" target="ng7PeLx7jzqzYdX6bXoY-3">
          <mxGeometry width="80" relative="1" as="geometry">
            <mxPoint x="50" y="70" as="sourcePoint" />
            <mxPoint x="130" y="70" as="targetPoint" />
          </mxGeometry>
        </mxCell>
        <mxCell id="ng7PeLx7jzqzYdX6bXoY-1" value="数据源信息管理节点" style="shape=umlLifeline;perimeter=lifelinePerimeter;container=1;collapsible=0;recursiveResize=0;rounded=0;shadow=0;strokeWidth=1;" vertex="1" parent="1">
          <mxGeometry x="670" y="80" width="120" height="460" as="geometry" />
        </mxCell>
        <mxCell id="ng7PeLx7jzqzYdX6bXoY-2" value="" style="points=[];perimeter=orthogonalPerimeter;rounded=0;shadow=0;strokeWidth=1;" vertex="1" parent="ng7PeLx7jzqzYdX6bXoY-1">
          <mxGeometry x="55" y="70" width="10" height="360" as="geometry" />
        </mxCell>
        <mxCell id="ng7PeLx7jzqzYdX6bXoY-3" value="数据源连接节点" style="shape=umlLifeline;perimeter=lifelinePerimeter;container=1;collapsible=0;recursiveResize=0;rounded=0;shadow=0;strokeWidth=1;" vertex="1" parent="1">
          <mxGeometry x="290" y="80" width="120" height="450" as="geometry" />
        </mxCell>
        <mxCell id="ng7PeLx7jzqzYdX6bXoY-4" value="" style="points=[];perimeter=orthogonalPerimeter;rounded=0;shadow=0;strokeWidth=1;" vertex="1" parent="ng7PeLx7jzqzYdX6bXoY-3">
          <mxGeometry x="55" y="70" width="10" height="360" as="geometry" />
        </mxCell>
        <mxCell id="ng7PeLx7jzqzYdX6bXoY-8" value="数据源连接测试" style="html=1;verticalAlign=bottom;endArrow=block;rounded=0;" edge="1" parent="ng7PeLx7jzqzYdX6bXoY-3" target="ng7PeLx7jzqzYdX6bXoY-7">
          <mxGeometry width="80" relative="1" as="geometry">
            <mxPoint x="60" y="90" as="sourcePoint" />
            <mxPoint x="140" y="90" as="targetPoint" />
          </mxGeometry>
        </mxCell>
        <mxCell id="ng7PeLx7jzqzYdX6bXoY-11" value="" style="html=1;points=[];perimeter=orthogonalPerimeter;" vertex="1" parent="ng7PeLx7jzqzYdX6bXoY-3">
          <mxGeometry x="65" y="120" width="10" height="60" as="geometry" />
        </mxCell>
        <mxCell id="ng7PeLx7jzqzYdX6bXoY-15" value="" style="html=1;points=[];perimeter=orthogonalPerimeter;" vertex="1" parent="ng7PeLx7jzqzYdX6bXoY-3">
          <mxGeometry x="59" y="250" width="10" height="40" as="geometry" />
        </mxCell>
        <mxCell id="ng7PeLx7jzqzYdX6bXoY-16" value="维护连接信息" style="edgeStyle=orthogonalEdgeStyle;html=1;align=left;spacingLeft=2;endArrow=block;rounded=0;entryX=1;entryY=0;" edge="1" target="ng7PeLx7jzqzYdX6bXoY-15" parent="ng7PeLx7jzqzYdX6bXoY-3">
          <mxGeometry relative="1" as="geometry">
            <mxPoint x="64" y="230" as="sourcePoint" />
            <Array as="points">
              <mxPoint x="94" y="230" />
            </Array>
          </mxGeometry>
        </mxCell>
        <mxCell id="ng7PeLx7jzqzYdX6bXoY-17" value="更新基本信息" style="html=1;verticalAlign=bottom;endArrow=block;rounded=0;" edge="1" parent="ng7PeLx7jzqzYdX6bXoY-3" target="ng7PeLx7jzqzYdX6bXoY-1">
          <mxGeometry width="80" relative="1" as="geometry">
            <mxPoint x="60" y="300" as="sourcePoint" />
            <mxPoint x="140" y="300" as="targetPoint" />
          </mxGeometry>
        </mxCell>
        <mxCell id="ng7PeLx7jzqzYdX6bXoY-6" value="数据存储节点" style="shape=umlLifeline;perimeter=lifelinePerimeter;container=1;collapsible=0;recursiveResize=0;rounded=0;shadow=0;strokeWidth=1;" vertex="1" parent="1">
          <mxGeometry x="480" y="80" width="120" height="420" as="geometry" />
        </mxCell>
        <mxCell id="ng7PeLx7jzqzYdX6bXoY-7" value="" style="points=[];perimeter=orthogonalPerimeter;rounded=0;shadow=0;strokeWidth=1;" vertex="1" parent="ng7PeLx7jzqzYdX6bXoY-6">
          <mxGeometry x="55" y="70" width="10" height="150" as="geometry" />
        </mxCell>
        <mxCell id="ng7PeLx7jzqzYdX6bXoY-18" value="" style="html=1;points=[];perimeter=orthogonalPerimeter;" vertex="1" parent="ng7PeLx7jzqzYdX6bXoY-6">
          <mxGeometry x="55" y="330" width="10" height="50" as="geometry" />
        </mxCell>
        <mxCell id="ng7PeLx7jzqzYdX6bXoY-12" value="连接成功signal" style="html=1;verticalAlign=bottom;endArrow=block;entryX=1;entryY=0;rounded=0;" edge="1" target="ng7PeLx7jzqzYdX6bXoY-11" parent="1" source="ng7PeLx7jzqzYdX6bXoY-6">
          <mxGeometry relative="1" as="geometry">
            <mxPoint x="425" y="200" as="sourcePoint" />
          </mxGeometry>
        </mxCell>
        <mxCell id="ng7PeLx7jzqzYdX6bXoY-13" value="连接成功signal" style="html=1;verticalAlign=bottom;endArrow=open;dashed=1;endSize=8;exitX=1;exitY=0.95;rounded=0;" edge="1" source="ng7PeLx7jzqzYdX6bXoY-11" parent="1" target="ng7PeLx7jzqzYdX6bXoY-6">
          <mxGeometry relative="1" as="geometry">
            <mxPoint x="425" y="257" as="targetPoint" />
          </mxGeometry>
        </mxCell>
        <mxCell id="ng7PeLx7jzqzYdX6bXoY-14" value="建立连接成功" style="html=1;verticalAlign=bottom;endArrow=open;dashed=1;endSize=8;rounded=0;" edge="1" parent="1">
          <mxGeometry relative="1" as="geometry">
            <mxPoint x="540" y="280" as="sourcePoint" />
            <mxPoint x="350" y="280" as="targetPoint" />
          </mxGeometry>
        </mxCell>
        <mxCell id="ng7PeLx7jzqzYdX6bXoY-19" value="数据结构信息查询" style="html=1;verticalAlign=bottom;endArrow=block;rounded=0;" edge="1" parent="1" source="ng7PeLx7jzqzYdX6bXoY-2" target="ng7PeLx7jzqzYdX6bXoY-18">
          <mxGeometry width="80" relative="1" as="geometry">
            <mxPoint x="610" y="410" as="sourcePoint" />
            <mxPoint x="690" y="410" as="targetPoint" />
          </mxGeometry>
        </mxCell>
        <mxCell id="ng7PeLx7jzqzYdX6bXoY-20" value="数据结构信息" style="html=1;verticalAlign=bottom;endArrow=open;dashed=1;endSize=8;rounded=0;" edge="1" parent="1" source="ng7PeLx7jzqzYdX6bXoY-6">
          <mxGeometry relative="1" as="geometry">
            <mxPoint x="670" y="450" as="sourcePoint" />
            <mxPoint x="730" y="460" as="targetPoint" />
          </mxGeometry>
        </mxCell>
        <mxCell id="ng7PeLx7jzqzYdX6bXoY-21" value="基本信息更新完成" style="html=1;verticalAlign=bottom;endArrow=open;dashed=1;endSize=8;rounded=0;" edge="1" parent="1">
          <mxGeometry relative="1" as="geometry">
            <mxPoint x="730" y="490" as="sourcePoint" />
            <mxPoint x="350" y="490" as="targetPoint" />
          </mxGeometry>
        </mxCell>
        <mxCell id="ng7PeLx7jzqzYdX6bXoY-22" value="建立连接成功" style="html=1;verticalAlign=bottom;endArrow=open;dashed=1;endSize=8;rounded=0;" edge="1" parent="1" target="3nuBFxr9cyL0pnOWT2aG-1">
          <mxGeometry relative="1" as="geometry">
            <mxPoint x="350" y="500" as="sourcePoint" />
            <mxPoint x="270" y="500" as="targetPoint" />
          </mxGeometry>
        </mxCell>
        <mxCell id="ng7PeLx7jzqzYdX6bXoY-23" value="客户端节点" style="shape=umlLifeline;perimeter=lifelinePerimeter;container=1;collapsible=0;recursiveResize=0;rounded=0;shadow=0;strokeWidth=1;" vertex="1" parent="1">
          <mxGeometry x="120" y="750" width="100" height="420" as="geometry" />
        </mxCell>
        <mxCell id="ng7PeLx7jzqzYdX6bXoY-24" value="" style="points=[];perimeter=orthogonalPerimeter;rounded=0;shadow=0;strokeWidth=1;" vertex="1" parent="ng7PeLx7jzqzYdX6bXoY-23">
          <mxGeometry x="45" y="70" width="10" height="320" as="geometry" />
        </mxCell>
        <mxCell id="ng7PeLx7jzqzYdX6bXoY-25" value="数据源删除请求" style="html=1;verticalAlign=bottom;endArrow=block;rounded=0;" edge="1" parent="ng7PeLx7jzqzYdX6bXoY-23" target="ng7PeLx7jzqzYdX6bXoY-28">
          <mxGeometry width="80" relative="1" as="geometry">
            <mxPoint x="50" y="70" as="sourcePoint" />
            <mxPoint x="130" y="70" as="targetPoint" />
          </mxGeometry>
        </mxCell>
        <mxCell id="ng7PeLx7jzqzYdX6bXoY-26" value="数据源信息管理节点" style="shape=umlLifeline;perimeter=lifelinePerimeter;container=1;collapsible=0;recursiveResize=0;rounded=0;shadow=0;strokeWidth=1;" vertex="1" parent="1">
          <mxGeometry x="480" y="750" width="120" height="420" as="geometry" />
        </mxCell>
        <mxCell id="ng7PeLx7jzqzYdX6bXoY-27" value="" style="points=[];perimeter=orthogonalPerimeter;rounded=0;shadow=0;strokeWidth=1;" vertex="1" parent="ng7PeLx7jzqzYdX6bXoY-26">
          <mxGeometry x="55" y="70" width="10" height="320" as="geometry" />
        </mxCell>
        <mxCell id="ng7PeLx7jzqzYdX6bXoY-59" value="" style="html=1;points=[];perimeter=orthogonalPerimeter;" vertex="1" parent="ng7PeLx7jzqzYdX6bXoY-26">
          <mxGeometry x="60" y="280" width="10" height="40" as="geometry" />
        </mxCell>
        <mxCell id="ng7PeLx7jzqzYdX6bXoY-60" value="数据源信息删除" style="edgeStyle=orthogonalEdgeStyle;html=1;align=left;spacingLeft=2;endArrow=block;rounded=0;entryX=1;entryY=0;" edge="1" target="ng7PeLx7jzqzYdX6bXoY-59" parent="ng7PeLx7jzqzYdX6bXoY-26">
          <mxGeometry relative="1" as="geometry">
            <mxPoint x="65" y="260" as="sourcePoint" />
            <Array as="points">
              <mxPoint x="95" y="260" />
            </Array>
          </mxGeometry>
        </mxCell>
        <mxCell id="ng7PeLx7jzqzYdX6bXoY-28" value="数据源连接节点" style="shape=umlLifeline;perimeter=lifelinePerimeter;container=1;collapsible=0;recursiveResize=0;rounded=0;shadow=0;strokeWidth=1;" vertex="1" parent="1">
          <mxGeometry x="290" y="750" width="120" height="410" as="geometry" />
        </mxCell>
        <mxCell id="ng7PeLx7jzqzYdX6bXoY-29" value="" style="points=[];perimeter=orthogonalPerimeter;rounded=0;shadow=0;strokeWidth=1;" vertex="1" parent="ng7PeLx7jzqzYdX6bXoY-28">
          <mxGeometry x="55" y="70" width="10" height="310" as="geometry" />
        </mxCell>
        <mxCell id="ng7PeLx7jzqzYdX6bXoY-47" value="" style="html=1;points=[];perimeter=orthogonalPerimeter;" vertex="1" parent="ng7PeLx7jzqzYdX6bXoY-28">
          <mxGeometry x="60" y="110" width="10" height="40" as="geometry" />
        </mxCell>
        <mxCell id="ng7PeLx7jzqzYdX6bXoY-48" value="数据源连接信息查询" style="edgeStyle=orthogonalEdgeStyle;html=1;align=left;spacingLeft=2;endArrow=block;rounded=0;entryX=1;entryY=0;" edge="1" target="ng7PeLx7jzqzYdX6bXoY-47" parent="ng7PeLx7jzqzYdX6bXoY-28">
          <mxGeometry relative="1" as="geometry">
            <mxPoint x="65" y="90" as="sourcePoint" />
            <Array as="points">
              <mxPoint x="95" y="90" />
            </Array>
          </mxGeometry>
        </mxCell>
        <mxCell id="ng7PeLx7jzqzYdX6bXoY-56" value="" style="html=1;points=[];perimeter=orthogonalPerimeter;" vertex="1" parent="ng7PeLx7jzqzYdX6bXoY-28">
          <mxGeometry x="60" y="190" width="10" height="40" as="geometry" />
        </mxCell>
        <mxCell id="ng7PeLx7jzqzYdX6bXoY-57" value="数据源连接信息清除" style="edgeStyle=orthogonalEdgeStyle;html=1;align=left;spacingLeft=2;endArrow=block;rounded=0;entryX=1;entryY=0;" edge="1" parent="ng7PeLx7jzqzYdX6bXoY-28" target="ng7PeLx7jzqzYdX6bXoY-56">
          <mxGeometry relative="1" as="geometry">
            <mxPoint x="65" y="170" as="sourcePoint" />
            <Array as="points">
              <mxPoint x="95" y="170" />
            </Array>
          </mxGeometry>
        </mxCell>
        <mxCell id="ng7PeLx7jzqzYdX6bXoY-58" value="数据源信息删除" style="html=1;verticalAlign=bottom;endArrow=block;rounded=0;" edge="1" parent="ng7PeLx7jzqzYdX6bXoY-28" target="ng7PeLx7jzqzYdX6bXoY-26">
          <mxGeometry width="80" relative="1" as="geometry">
            <mxPoint x="60" y="250" as="sourcePoint" />
            <mxPoint x="140" y="250" as="targetPoint" />
          </mxGeometry>
        </mxCell>
        <mxCell id="ng7PeLx7jzqzYdX6bXoY-61" value="删除完毕" style="html=1;verticalAlign=bottom;endArrow=open;dashed=1;endSize=8;rounded=0;" edge="1" parent="1" target="ng7PeLx7jzqzYdX6bXoY-28">
          <mxGeometry relative="1" as="geometry">
            <mxPoint x="540" y="1090" as="sourcePoint" />
            <mxPoint x="460" y="1090" as="targetPoint" />
          </mxGeometry>
        </mxCell>
        <mxCell id="ng7PeLx7jzqzYdX6bXoY-62" value="数据源删除成功" style="html=1;verticalAlign=bottom;endArrow=open;dashed=1;endSize=8;rounded=0;" edge="1" parent="1" target="ng7PeLx7jzqzYdX6bXoY-23">
          <mxGeometry relative="1" as="geometry">
            <mxPoint x="350" y="1110" as="sourcePoint" />
            <mxPoint x="270" y="1110" as="targetPoint" />
          </mxGeometry>
        </mxCell>
      </root>
    </mxGraphModel>
  </diagram>
</mxfile>
